HIERARCHY
ROOT SpineBase
{
  OFFSET 0.000000 0.000000 0.000000
  CHANNELS 6 Xposition Yposition Zposition Zrotation Xrotation Yrotation
  JOINT SpineMid
  {
    OFFSET 0.000000 27.386326 0.000000
    CHANNELS 3 Zrotation Xrotation Yrotation
    JOINT SpineShoulder
    {
      OFFSET -0.050649 20.422183 -0.652579
      CHANNELS 3 Zrotation Xrotation Yrotation
      JOINT Neck
      {
        OFFSET -0.031887 6.768056 -0.514507
        CHANNELS 3 Zrotation Xrotation Yrotation
        JOINT Head
        {
          OFFSET 2.872587 11.769487 1.379968
          CHANNELS 3 Zrotation Xrotation Yrotation
          End Site
          {
            OFFSET 0 0 0
          }
        }
      }
      JOINT ShoulderLeft
      {
        OFFSET -11.886913 -2.420574 -8.000082
        CHANNELS 3 Zrotation Xrotation Yrotation
        JOINT ElbowLeft
        {
          OFFSET -4.458231 -20.710093 -3.222709
          CHANNELS 3 Zrotation Xrotation Yrotation
          JOINT WristLeft
          {
            OFFSET 3.141400 -22.891341 -6.192836
            CHANNELS 3 Zrotation Xrotation Yrotation
            JOINT HandLeft
            {
              OFFSET 0.783282 -5.151374 -0.277260
              CHANNELS 3 Zrotation Xrotation Yrotation
              JOINT HandTipLeft
              {
                OFFSET 1.577623 -6.196890 -0.014029
                CHANNELS 3 Zrotation Xrotation Yrotation
                End Site
                {
                  OFFSET 0 0 0
                }
              }
              JOINT ThumbLeft
              {
                OFFSET 2.764429 0.301772 -0.876941
                CHANNELS 3 Zrotation Xrotation Yrotation
                End Site
                {
                  OFFSET 0 0 0
                }
              }
            }
          }
        }
      }
      JOINT ShoulderRight
      {
        OFFSET 11.572711 -3.729483 4.239180
        CHANNELS 3 Zrotation Xrotation Yrotation
        JOINT ElbowRight
        {
          OFFSET 1.456714 -28.043370 0.314076
          CHANNELS 3 Zrotation Xrotation Yrotation
          JOINT WristRight
          {
            OFFSET 2.803847 -20.687347 -4.101204
            CHANNELS 3 Zrotation Xrotation Yrotation
            JOINT HandRight
            {
              OFFSET -1.495171 -3.507133 -0.890276
              CHANNELS 3 Zrotation Xrotation Yrotation
              JOINT HandTipRight
              {
                OFFSET -0.434280 -5.234591 -0.515652
                CHANNELS 3 Zrotation Xrotation Yrotation
                End Site
                {
                  OFFSET 0 0 0
                }
              }
              JOINT ThumbRight
              {
                OFFSET -3.104866 1.934194 -1.874586
                CHANNELS 3 Zrotation Xrotation Yrotation
                End Site
                {
                  OFFSET 0 0 0
                }
              }
            }
          }
        }
      }
    }
  }
  JOINT HipLeft
  {
    OFFSET -5.785605 1.075624 -5.520488
    CHANNELS 3 Zrotation Xrotation Yrotation
    JOINT KneeLeft
    {
      OFFSET -7.966222 -27.034265 -2.557339
      CHANNELS 3 Zrotation Xrotation Yrotation
      JOINT AnkleLeft
      {
        OFFSET -4.570412 -35.275114 6.501622
        CHANNELS 3 Zrotation Xrotation Yrotation
        JOINT FootLeft
        {
          OFFSET 4.493835 -2.570691 -7.712768
          CHANNELS 3 Zrotation Xrotation Yrotation
          End Site
          {
            OFFSET 0 0 0
          }
        }
      }
    }
  }
  JOINT HipRight
  {
    OFFSET 5.562561 0.627471 -0.731971
    CHANNELS 3 Zrotation Xrotation Yrotation
    JOINT KneeRight
    {
      OFFSET -4.148935 -27.568934 2.025947
      CHANNELS 3 Zrotation Xrotation Yrotation
      JOINT AnkleRight
      {
        OFFSET -4.922567 -35.340536 6.487208
        CHANNELS 3 Zrotation Xrotation Yrotation
        JOINT FootRight
        {
          OFFSET 2.993283 -3.499676 -8.228308
          CHANNELS 3 Zrotation Xrotation Yrotation
          End Site
          {
            OFFSET 0 0 0
          }
        }
      }
    }
  }
}
MOTION
Frames: 13
Frame Time: 0.033333
14.940666 94.805489 371.993636 -0.000000 0.000000 -22.877994 -0.000000 0.000000 22.877994 -0.000000 0.000000 0.000000 -0.000000 0.000000 0.000000 0.000000 0.000000 0.000000 -0.000000 0.000000 0.000000 -0.000000 0.000000 0.000000 -0.000000 0.000000 0.000000 -0.000000 0.000000 0.000000 0.000000 0.000000 0.000000 0.000000 0.000000 0.000000 -0.000000 0.000000 0.000000 -0.000000 0.000000 0.000000 -0.000000 0.000000 0.000000 -0.000000 0.000000 0.000000 0.000000 0.000000 0.000000 0.000000 0.000000 0.000000 -0.000000 0.000000 22.877994 -0.000000 0.000000 0.000000 -0.000000 0.000000 0.000000 0.000000 0.000000 0.000000 -0.000000 0.000000 22.877994 -0.000000 0.000000 0.000000 -0.000000 0.000000 0.000000 0.000000 0.000000 0.000000
14.952744 94.791542 372.006646 0.014182 -0.020639 -22.786324 -0.021068 0.013535 22.786329 -0.000000 0.000000 0.000000 -0.000000 0.000000 0.000000 0.000000 0.000000 0.000000 -0.000000 0.000000 0.000000 -0.000000 0.000000 0.000000 -0.000000 0.000000 0.000000 -2.266779 -0.273465 -0.070252 0.000000 0.000000 0.000000 0.000000 0.000000 0.000000 -0.000000 0.000000 0.000000 -0.000000 0.000000 0.000000 -0.000000 0.000000 0.000000 1.418063 3.933143 -0.513614 0.000000 0.000000 0.000000 0.000000 0.000000 0.000000 -0.021068 0.013535 22.786329 -0.000000 0.000000 0.000000 -4.546423 -9.289365 -4.360288 0.000000 0.000000 0.000000 -0.021068 0.013535 22.786329 -0.000000 0.000000 0.000000 -1.282375 0.607976 3.530643 0.000000 0.000000 0.000000
14.964244 94.778910 372.012269 0.020848 -0.035367 -22.704439 -0.032884 0.024580 22.704453 -0.000000 0.000000 0.000000 -0.000000 0.000000 0.000000 0.000000 0.000000 0.000000 -0.000000 0.000000 0.000000 -0.000000 0.000000 0.000000 -0.298143 1.382324 0.229782 -3.889922 -1.770583 -0.432987 0.000000 0.000000 0.000000 0.000000 0.000000 0.000000 -0.000000 0.000000 0.000000 0.585574 1.007853 0.015325 -0.585934 -1.007643 -0.025628 2.527280 6.974440 -0.978266 0.000000 0.000000 0.000000 0.000000 0.000000 0.000000 -0.032884 0.024580 22.704453 -0.000000 0.000000 0.000000 -10.763490 -19.238207 -10.346723 0.000000 0.000000 0.000000 -0.032884 0.024580 22.704453 -0.000000 0.000000 0.000000 -2.368184 1.165797 6.542023 0.000000 0.000000 0.000000
14.975164 94.767592 372.010505 0.020002 -0.044189 -22.632462 -0.035466 0.033089 22.632480 -0.000000 0.000000 0.000000 -0.000000 0.000000 0.000000 0.000000 0.000000 0.000000 -0.000000 0.000000 0.000000 -0.000000 0.000000 0.000000 -0.377745 1.858568 0.308968 -5.355796 -2.219762 -0.590584 0.000000 0.000000 0.000000 0.000000 0.000000 0.000000 -0.000000 0.000000 0.000000 0.784410 1.333273 0.016024 0.040507 -0.772844 -0.468332 2.467334 8.734483 -0.884977 0.000000 0.000000 0.000000 0.000000 0.000000 0.000000 -0.035466 0.033089 22.632480 -0.000000 0.000000 0.000000 -18.218688 -28.039354 -17.542360 0.000000 0.000000 0.000000 -0.035466 0.033089 22.632480 -0.000000 0.000000 0.000000 -3.200733 1.694373 8.909014 0.000000 0.000000 0.000000
14.985506 94.757587 372.001354 0.011643 -0.047104 -22.570493 -0.028831 0.039028 22.570507 -0.000000 0.000000 0.000000 -0.000000 0.000000 0.000000 0.000000 0.000000 0.000000 -0.000000 0.000000 0.000000 -0.000000 0.000000 0.000000 -0.412625 2.200986 0.364664 -6.476203 -2.390784 -0.672686 0.000000 0.000000 0.000000 0.000000 0.000000 0.000000 -0.832378 0.006607 -0.008935 1.752195 1.532331 0.022880 0.371669 -0.963574 -0.585460 2.558803 10.402769 -1.052606 0.000000 0.000000 0.000000 0.000000 0.000000 0.000000 -0.028831 0.039028 22.570507 -0.000000 0.000000 0.000000 -25.487987 -34.278064 -24.538827 0.000000 0.000000 0.000000 -0.028831 0.039028 22.570507 -0.000000 0.000000 0.000000 -3.738852 2.214473 10.545142 0.000000 0.000000 0.000000
14.995269 94.748897 371.984817 -0.004227 -0.044115 -22.518609 -0.012990 0.042371 22.518612 -0.000000 0.000000 0.000000 -0.000000 0.000000 0.000000 0.000000 0.000000 0.000000 -0.000000 0.000000 0.000000 -0.000000 0.000000 0.000000 -0.403495 2.414423 0.397155 -7.237977 -2.290745 -0.662362 0.000000 0.000000 0.000000 0.000000 0.000000 0.000000 -0.887689 -0.002684 -0.010106 1.879756 1.626791 0.019274 0.854419 -1.118905 -0.681248 2.342427 11.612756 -1.147008 0.000000 0.000000 0.000000 0.000000 0.000000 0.000000 -0.012990 0.042371 22.518612 -0.000000 0.000000 0.000000 -30.793656 -37.771452 -29.565587 0.000000 0.000000 0.000000 -0.012990 0.042371 22.518612 -0.000000 0.000000 0.000000 -3.956148 2.739872 11.400738 0.000000 0.000000 0.000000
15.014835 94.749769 371.970206 -0.007783 -0.044077 -22.509661 -0.009685 0.043699 22.509662 -0.000000 0.000000 0.000000 -0.000000 0.000000 0.000000 0.000000 0.000000 0.000000 0.742455 0.512300 -0.229298 -0.740429 -0.515224 0.222649 -0.191905 2.859519 0.449515 -7.467576 -3.726244 -1.109237 0.000000 0.000000 0.000000 0.000000 0.000000 0.000000 -1.058199 -0.165898 -0.022012 2.427623 1.710411 -0.065488 1.811743 -0.231408 -1.285685 2.963162 11.502950 -0.883506 0.000000 0.000000 0.000000 0.000000 0.000000 0.000000 -0.009685 0.043699 22.509662 -0.000000 0.000000 0.000000 -43.633061 -42.012381 -47.639950 0.000000 0.000000 0.000000 -0.009685 0.043699 22.509662 -0.000000 0.000000 0.000000 -5.347438 1.771368 14.158401 0.000000 0.000000 0.000000
15.018819 94.735116 371.939658 -0.031694 -0.011929 -22.455721 0.024734 0.023131 22.455712 -0.000000 0.000000 0.000000 -0.000000 0.000000 0.000000 0.000000 0.000000 0.000000 1.038027 0.559647 -0.287419 -1.035257 -0.564756 0.277247 -0.309910 2.813091 0.451701 -7.229379 -2.474765 -0.699677 0.000000 0.000000 0.000000 0.000000 0.000000 0.000000 -0.000000 0.000000 0.000000 1.118051 1.184576 -0.072415 2.385675 -1.580495 -0.594541 1.966079 12.883403 -1.473262 0.000000 0.000000 0.000000 0.000000 0.000000 0.000000 0.024734 0.023131 22.455712 -0.000000 0.000000 0.000000 -51.441282 -43.462010 -56.399113 0.000000 0.000000 0.000000 0.024734 0.023131 22.455712 -0.000000 0.000000 0.000000 -5.545604 0.787635 14.046506 0.000000 0.000000 0.000000
15.023437 94.726055 371.908764 -0.081124 0.015723 -22.527304 0.080958 0.016557 22.527303 -0.000000 0.000000 0.000000 -0.000000 0.000000 0.000000 0.000000 0.000000 0.000000 1.468056 0.654670 -0.378483 -1.463798 -0.664138 0.361611 -0.130643 2.630494 0.409639 -7.955878 -1.056433 -0.256701 0.000000 0.000000 0.000000 0.000000 0.000000 0.000000 -0.000000 0.000000 0.000000 0.673967 0.992009 -0.004981 2.775182 -1.728967 -0.493407 2.018949 13.313980 -1.664465 0.000000 0.000000 0.000000 0.000000 0.000000 0.000000 0.080958 0.016557 22.527303 -0.000000 0.000000 0.000000 -44.630142 -42.539033 -47.670970 0.000000 0.000000 0.000000 0.080958 0.016557 22.527303 -0.000000 0.000000 0.000000 -5.649514 -0.529737 13.470273 0.000000 0.000000 0.000000
15.019431 94.719733 371.854802 -0.148136 0.043337 -22.431275 0.153464 0.016467 22.431309 -0.000000 0.000000 0.000000 -0.000000 0.000000 0.000000 0.000000 0.000000 0.000000 1.834842 0.745237 -0.459023 -2.604470 -1.034016 0.596553 0.739489 2.171174 0.117094 -7.708470 -0.014743 0.073925 0.000000 0.000000 0.000000 0.000000 0.000000 0.000000 -0.000000 0.000000 0.000000 0.131456 0.990705 0.106881 3.390503 -1.413232 -0.761819 0.594468 10.920777 -0.951866 0.000000 0.000000 0.000000 0.000000 0.000000 0.000000 0.153464 0.016467 22.431309 -0.000000 0.000000 0.000000 -24.424106 -33.582349 -22.546577 0.000000 0.000000 0.000000 0.153464 0.016467 22.431309 -0.000000 0.000000 0.000000 -5.149359 -3.913147 9.725436 0.000000 0.000000 0.000000
14.997201 94.710006 371.769844 -0.248600 0.061891 -22.226666 0.253539 0.036747 22.226719 -0.000000 0.000000 0.000000 -0.000000 0.000000 0.000000 0.000000 0.000000 0.000000 2.005810 0.694644 -0.475194 -2.831901 -1.004317 0.624707 0.831773 1.526382 0.000591 -7.297572 1.062743 0.406368 0.000000 0.000000 0.000000 0.000000 0.000000 0.000000 -0.000000 0.000000 0.000000 -0.444203 1.063230 0.235982 3.356635 -0.958176 -0.974997 0.908115 10.026669 -0.759597 0.000000 0.000000 0.000000 0.000000 0.000000 0.000000 0.253539 0.036747 22.226719 -0.000000 0.000000 0.000000 -9.983050 -16.824059 -2.664193 0.000000 0.000000 0.000000 0.253539 0.036747 22.226719 -0.000000 0.000000 0.000000 -5.398068 -12.594870 1.840655 0.000000 0.000000 0.000000
14.981766 94.707007 371.655036 -0.369685 0.055749 -22.199155 0.363346 0.088061 22.199055 -0.000000 0.000000 0.000000 -0.000000 0.000000 0.000000 0.000000 0.000000 0.000000 2.297414 0.807184 -0.549264 -3.292439 -1.324010 0.703776 1.008569 0.482938 -0.210339 -6.213081 3.207342 1.018931 0.000000 0.000000 0.000000 0.000000 0.000000 0.000000 0.478465 -0.764677 -0.031161 -1.701023 2.276672 0.516529 6.039986 -0.767094 -1.921014 -2.421742 10.582978 0.140936 0.000000 0.000000 0.000000 0.000000 0.000000 0.000000 0.363346 0.088061 22.199055 -0.000000 0.000000 0.000000 -7.966605 -12.806205 1.042918 0.000000 0.000000 0.000000 0.363346 0.088061 22.199055 -0.000000 0.000000 0.000000 -3.644651 -15.210394 -7.579610 0.000000 0.000000 0.000000
14.960134 94.712940 371.533787 -0.503269 0.021931 -22.147190 0.474406 0.169411 22.146585 -0.821091 -0.033591 -0.062820 0.821054 0.034488 0.062332 0.000000 0.000000 0.000000 3.381439 1.116885 -0.596680 -3.904028 -1.684734 0.867204 3.402250 -0.820827 -0.610711 -10.556721 1.814450 0.733777 0.000000 0.000000 0.000000 0.000000 0.000000 0.000000 1.257367 -1.324669 0.001506 -2.151906 3.786764 0.814938 9.524216 -2.787342 -2.204572 -6.300119 12.047541 0.593047 0.000000 0.000000 0.000000 0.000000 0.000000 0.000000 0.474406 0.169411 22.146585 -0.000000 0.000000 0.000000 -4.426631 -4.457186 6.514887 0.000000 0.000000 0.000000 0.474406 0.169411 22.146585 -0.000000 0.000000 0.000000 -2.587087 -16.606170 -13.423269 0.000000 0.000000 0.000000
